<svg id="Layer_2" data-name="Layer 2" xmlns="http://www.w3.org/2000/svg" viewBox="0 0 162.35 196.69"><defs><style>.cls-1{fill:#fff;}</style></defs><title>home-icon</title><path d="M158,88.09c.17,3.24.39,6.38.46,9.53a29.83,29.83,0,0,1-.48,3.61,37,37,0,0,0-.27,4c0,3.36.29,6.73.12,10.08-.16,3-.87,6-1.14,9.08-.17,1.9.13,3.83.07,5.74-.13,4.21-.45,8.42-.49,12.63s0,8.47.31,12.69a37.25,37.25,0,0,1-.86,9.23c-.86,4.83-2.62,10,.67,14.62a6.08,6.08,0,0,0,3.43,2,4.07,4.07,0,0,1,2.89,5.94c-1.47,2.67-4.44,4.53-6.81,3.57a11.67,11.67,0,0,0-6.46-.55c-4.23.67-8.26-.42-12.35-1.11a1.57,1.57,0,0,0-.52,0c-3.8.68-7.33-.92-11-1.28-2.73-.27-5.54.21-8.32.33a29.26,29.26,0,0,1-4.65.09c-1.92-.22-3.79-.8-5.69-1.17a7.24,7.24,0,0,0-1.72,0c-.57,0-1.14.17-1.71.16-3.62-.09-7.25-.48-10.84-.24-4.33.29-8.62,1.13-12.93,1.68-2.23.28-4.49.34-6.7.7-1.75.29-3.45.89-5.19,1.32a4.8,4.8,0,0,1-1.88.28c-2.94-.52-5.28,1-7.76,2.09a9.38,9.38,0,0,1-2.59,1,3.82,3.82,0,0,0-3.22,2.77c-.24.59-.46,1.2-.68,1.8-.42,1.11-.87,1.63-2.31,1.1-1.24-.45-2.42-.57-3.11-1.94a3.32,3.32,0,0,0-1.85-1.23,3.2,3.2,0,0,1-2.2-3.22c-.28-3.93-.69-7.86-.7-11.79,0-2.34.75-4.67,1-7a30.8,30.8,0,0,0-.25-4c-.08-1.89-.07-3.78-.16-5.67a13.29,13.29,0,0,0-.36-2.87c-.6-2.19-1.23-4.2-.2-6.6.65-1.52.07-3.57,0-5.38,0-.72-.22-1.44-.21-2.17,0-1.9.19-3.81.17-5.71,0-3-.15-6-.26-9,0-.75-.19-1.5-.21-2.26-.05-2-.06-3.92-.09-5.88,0-.29.1-.65,0-.85-1.62-2.56,0-5.35-.6-8a15.79,15.79,0,0,1-.4-3.93c.08-3.65.35-7.3.41-11,0-1.34-.26-3-1.78-3.25a3.78,3.78,0,0,0-2.78,1.23c-1.78,1.83-3.57,3.52-6.17,4a4.76,4.76,0,0,1-1.54.1c-2.68-.36-2.52-.28-4,2.1a12,12,0,0,1-3.75,4c-1.13.68-2.9.48-4.37.4a2.47,2.47,0,0,1-2-3.68c1.85-3.52,4.25-6.83,5.54-10.54.87-2.52,2.79-4,3.94-6.21.79-1.48,2.25-2.58,3.31-3.93a45.54,45.54,0,0,0,3.59-5C31.42,78.75,32,76.75,33,75a39,39,0,0,1,2.56-3.2c1.46-2,2.83-4.12,4.27-6.16.52-.73,1.17-1.38,1.71-2.1q3.32-4.41,6.6-8.85c1.59-2.16,3.13-4.35,4.7-6.53.43-.6.89-1.18,1.34-1.77s.94-.88,1-1.38c.41-3,2.72-4.56,4.62-6.47a21.76,21.76,0,0,0,2.51-3.13c1.59-2.33,2.95-4.84,4.68-7.06,2.27-2.9,4.85-5.57,7.24-8.38,1.92-2.25,3.71-4.62,5.66-6.84,1.67-1.91,3.44-3.72,5.24-5.51a13.69,13.69,0,0,1,1.79-1,17.82,17.82,0,0,0,2.77-2.2A3.56,3.56,0,0,1,94.29,4c2.32,1.74,2.32,1.74,4.54.12,1.62-1.18,3.51-1.37,5,0a70.54,70.54,0,0,1,5.43,6c1.71,2,3.33,4.11,5,6.18,2.07,2.62,4,5.36,6.25,7.81a10.35,10.35,0,0,1,1.89,3.16,10.65,10.65,0,0,0,2.94,3.36c2.42,2.13,3.52,5,4.83,7.82.53,1.14,1.74,2,2.63,2.95a3.23,3.23,0,0,1,.81,1.07c1.33,4.58,4.88,7.31,8.32,10.14.22.18.56.29.69.52,1.53,2.85,4.58,3.8,6.93,5.63,1.22.95,2.33,2,3.53,3,2.46,2,4.9,4,7.44,5.88s5.07,3.35,7.46,5.22a21.35,21.35,0,0,1,7.47,9.87c.74,2.21,1.36,5.1-1,7a7.39,7.39,0,0,1-3.2,1.05c-1.28.25-2.72,0-3.88.47-2.66,1.08-4-.8-5.46-2.21S160.25,87.61,158,88.09ZM108,45.3c-.9-1.9-1.24-4-2.18-4.32-2-.68-2.74-2.32-3.84-3.64-1.32-1.57-2.24-3.48-3.42-5.17-1-1.37-2.2-2.54-3-4-1.15-1.91-2.86-2.27-4.48-.72-1.05,1-2.17,1.95-3.17,3a21.81,21.81,0,0,0-2.63,3.15c-1.71,2.66-3.15,5.51-5,8.08-1,1.41-2.88,2.21-3.91,3.61-3,4.1-5.78,8.39-8.69,12.57a53.43,53.43,0,0,1-3.47,4.49c-2.09,2.41-4.27,4.73-6.41,7.1a5.69,5.69,0,0,0-.45.73c-.87,1.33-1.73,2.66-2.6,4s-1.93,2.26-2.31,3.56S50.71,80,52,81.56a4.73,4.73,0,0,0,5.79,1.34A12.36,12.36,0,0,1,66.28,82a6.69,6.69,0,0,0,2.08.1c2.6-.26,5.19-.74,7.79-.79a6,6,0,0,1,3.93,1.16A3.54,3.54,0,0,1,80.36,86c-1.73,2-3.71,3.85-6.65,4.33-2,.33-4.43.65-5.31,3.06-.69,1.87-2.08,2.24-3.81,2.47-3.06.41-6.1,1-9.12,1.59-.4.08-.86.83-.94,1.33a34.49,34.49,0,0,0-.38,4.34c-.19,6-.32,11.9-.5,17.85,0,1.62-.25,3.24-.27,4.86-.08,5.74-.09,11.47-.17,17.21,0,1.68-.27,3.35-.22,5,.08,2.49.38,5,.48,7.45a25.88,25.88,0,0,1-.19,4.92c-.28,1.79-1.37,3.38-1,5.37a29.17,29.17,0,0,1,.88,6.89,29.23,29.23,0,0,1-1.36,7.1c-.48,1.64-.37,3.12.75,4.19s2.57.8,3.94.13c3.66-1.79,7.3-3.62,11.54-3.69a10.46,10.46,0,0,0,2.68-.75,44,44,0,0,1,5.77-1.72c3.19-.51,6.44-.72,9.66-1,1.31-.11,5.34-3.36,5.47-4.67a38.44,38.44,0,0,0,.19-4.46c-.06-2.66-.25-5.32-.31-8,0-1.28.24-2.56.18-3.83-.11-2.12-.66-4.25-.55-6.35.26-4.94-.17-9.87.61-14.84.67-4.24,0-8.68.25-13a21.06,21.06,0,0,1,1.62-6.72c1.23-2.94,3.17-3.41,6.25-2.11a4.14,4.14,0,0,0,3.63-.06c1.15-.53,2.73-.15,4.11-.1.44,0,.88.36,1.31.36,2.91,0,5.83.1,8.73-.09,3.16-.2,6.31-.64,9.46-1,1.84-.23,2.89.62,2.8,2.52a21.23,21.23,0,0,1-.41,3.29,88.59,88.59,0,0,0-1.76,18.63c0,4.06-.19,8.11-.1,12.17.06,2.94.39,5.88.71,8.81s.87,5.95,1.21,8.93.59,6.15.82,9.24c.09,1.21.32,2.07,1.79,2.31,3.31.55,6.59,1.26,9.88,1.92a2.1,2.1,0,0,0,2.77-1.85,40.27,40.27,0,0,0,.17-4.87c-.19-4.81-.56-9.62-.67-14.43-.08-3.89.18-7.78.18-11.67,0-3.23-.22-6.46-.23-9.69,0-2.32.2-4.65.25-7,.08-3.6.1-7.19.15-10.79.07-5.45.23-10.9.18-16.34a34.51,34.51,0,0,1,1.48-11.13c.47-1.45-.75-3.57-2.22-3.61a15.79,15.79,0,0,0-3.81.21A37.77,37.77,0,0,0,136,90.27c-1.89.68-4.11.11-4.69-1.56a24,24,0,0,1-1.24-6.22,3.17,3.17,0,0,1,1.62-2.39c1.53-.7,3.34-.78,4.92-1.4A10.31,10.31,0,0,0,139,76.76a7.54,7.54,0,0,1-1.24-1.33,2.18,2.18,0,0,1-.3-1.55c.62-1.82,1.09-3.52-.87-4.88-1.59-1.11-3.11-2.31-4.68-3.45-.92-.66-1.88-1.25-2.7-1.8L126,67.41c-.38-1-.47-2.3-1.15-2.78-1.78-1.27-.75-2,.26-2.76a3.28,3.28,0,0,0-.37-5.41,10.62,10.62,0,0,1-3.19-3,4.24,4.24,0,0,0-3.08-1.84,5.2,5.2,0,0,1-1.18-.23c-.42-.22-1-.6-1.06-.94s.46-.87.83-1.21.78-.14.95-.37a26.22,26.22,0,0,0,1.4-2.38l-1.53.24-.4-2.28c-1.63.74-3.15-.3-4.84.69C111.4,45.88,109.38,45.3,108,45.3Zm11.09,117.1.38,0c0-.52,0-1.05,0-1.57.09-3.43.11-6.87.29-10.3.14-2.76.67-5.51.68-8.26,0-4.08-.7-8.16.45-12.23.5-1.78-.29-3-1.73-3.29a14,14,0,0,0-2.95-.32A17.25,17.25,0,0,1,106,123.6c-1-.71-2.67-.61-4-.73-.27,0-.82.61-.87,1-.14,1.24-.1,2.5-.13,3.76-.06,2.54-.08,5.08-.2,7.62-.14,2.75-.33,5.5-.61,8.24-.19,1.89-.84,3.79,1.09,5.29.41.32.48,1.15.58,1.77.37,2.24.64,4.49,1,6.72.3,1.66-.33,2.61-2,3.22a2,2,0,0,0-.9,1.43c-.49,3.15-.85,6.32-1.32,9.47-.3,2,.06,2.8,2.06,3,3.68.43,7.38.68,11.08,1,2.2.17,4.41.31,6.62.32a2,2,0,0,0,1.57-.92,7.12,7.12,0,0,0,.43-3.06C120,168.58,119.55,165.49,119.13,162.4Z" transform="translate(-13.71 -3.19)"/><path class="cls-1" d="M115.17,141.19c.32,2.37.69,4.74.93,7.12a5.46,5.46,0,0,1-.33,2.35,1.53,1.53,0,0,1-1.2.71c-1.69,0-3.39-.11-5.08-.24-2.84-.21-5.68-.4-8.51-.73-1.53-.18-1.81-.78-1.58-2.33.36-2.42.64-4.85,1-7.27a1.55,1.55,0,0,1,.69-1.1c1.32-.47,1.8-1.19,1.57-2.47-.31-1.71-.52-3.44-.8-5.16-.08-.47-.13-1.11-.45-1.36-1.48-1.15-1-2.6-.84-4.06.21-2.1.36-4.22.47-6.33.1-1.95.11-3.9.16-5.85,0-1,0-1.93.1-2.88,0-.29.46-.77.66-.76,1.05.09,2.3,0,3.1.56a13.24,13.24,0,0,0,7.88,2.13,10.78,10.78,0,0,1,2.26.25,1.8,1.8,0,0,1,1.33,2.52c-.89,3.12-.34,6.25-.35,9.39,0,2.11-.41,4.22-.52,6.34-.14,2.63-.16,5.27-.22,7.91,0,.4,0,.81,0,1.21Z" transform="translate(-13.71 -3.19)"/><path d="M126.82,72.64l-1.51-1.11.29-.44,1.58,1Z" transform="translate(-13.71 -3.19)"/></svg>