<svg id="Layer_1" data-name="Layer 1" xmlns="http://www.w3.org/2000/svg" viewBox="0 0 189.77 203.07"><title>printer-icon</title><path d="M198.49,55.31l-11.34-5.12-1.64,2c9.22,4.33,12.09,12.8,13.21,21.18,1.8,13.44,2,27.1,2.81,40.68.09,1.5-.62,3.18-.18,4.52,3.88,11.83-.7,23.32-1.5,34.92-.32,4.64-3.11,9-8.67,9.88-7.65,1.27-15.3,2.54-23,3.7a9.69,9.69,0,0,1-3.92-.35c-7.88-2.2-8.62-1.93-7.59,6.31,1.06,8.55,3.3,16.95,4.57,25.48.32,2.14-.87,4.64-1.91,6.7-.18.35-3.07-.73-4.74-1a13.16,13.16,0,0,0-3.35-.28c-24,1.82-48,3.71-72,5.48a37.57,37.57,0,0,1-9.48-.4c-1-.19-2.25-2.36-2.36-3.7-.8-10-1.52-20-1.88-30.07-.14-3.8-1.12-5.36-5.21-5.34-5.83,0-11.66-1-17.48-1-2.49,0-5,1.38-6.4,1.81-3.2-1.6-5.56-3.18-8.16-4C19.18,163.8,17.8,161.47,16.4,152,14,136.2,11.83,120.47,14,104.49c.3-2.19,1.52-4.24,2.14-6.41A26,26,0,0,0,17,93.2c1-11.72,2-23.44,2.89-35.18.14-1.91-.57-3.88-.94-6.09,1-.91,2.26-2.48,3.87-3.27a27,27,0,0,1,7.93-2.74c6.06-.84,12.18-1.2,18.29-1.71a17.27,17.27,0,0,1,3.19.11c3.2.33,6.4.87,9.61,1.05,9,.51,8.82.45,9.25-8.3.46-9.44,1.28-18.85,2-28.78,1.54.37,2.72.69,3.92.95,5.93,1.29,11.59,1.85,17.84.19,15.6-4.15,31.59-3.53,47.36-.71,7.31,1.31,15.42.65,21.43,6.35,1.46,1.38,3.12,3.19,3.44,5,1.3,7.59,1.92,15.29,3.3,22.86.23,1.29,2.91,3,4.51,3,5.66.2,11.37-.61,17-.3A7,7,0,0,1,198.49,55.31ZM44.87,57.44c-2.15-.84-4.11-2.41-5.58-2-6.45,1.64-14.91,14-14.61,20.75.34,7.56,1,15.12,1,22.68.15,17.82.1,35.63,0,53.45,0,4.66,1.76,5.95,6.51,6.07a219.35,219.35,0,0,1,27.71,2.56c4.1.63,5.08-.34,5.17-4,.14-5.88.55-11.76.86-17.63.18-3.43-1.24-5.39-4.81-5.68-8.66-.71-17.33-1.28-25.95-2.36-2.45-.31-4.71-2.2-7.06-3.36,2-1.44,3.81-3.65,6-4.15a62.44,62.44,0,0,1,15.14-1.91c12.3.29,24.6,1.88,36.88,1.72,22.36-.28,44.7-1.48,67-2.22,5.31-.17,10.63-.14,15.94.06,3.92.14,7.29,1.17,9.18,5.4,2.29,5.12,1.71,6.4-3.93,6.24-4.73-.13-9.49-.7-14.16-.23-1.64.17-4.19,2.72-4.34,4.37a135.29,135.29,0,0,0-.12,18.19c0,1,2,2.8,3.08,2.82,8.28.19,16.57.08,24.85,0,4.13-.06,5.59-2.33,5.19-6.34a69.86,69.86,0,0,1-.45-11.34c1.35-20.61,3.34-41.18,4.18-61.81.53-13-8.13-22.41-19.86-23.28-4.84-.36-9.74.15-14.61.19-4.13,0-8.28-.27-12.4,0-4.52.31-9,1.79-13.5,1.56-12.81-.66-25.57-2.33-38.38-2.84-12.14-.49-24.44-1.73-36.18,3.32-2.51,1.08-5.49,1.07-8.25,1.56l-.15-.91L60,55.55C53.28,52.61,45.85,54.23,44.87,57.44Zm104.52,77.14a20,20,0,0,0-3.06-.24c-12,1.06-24,2.3-36,3.17-3.71.27-7.5-.38-11.24-.77-6.17-.64-12.31-1.89-18.49-2-8.18-.16-9.39,1.4-9.31,10,.07,7.73.41,15.47.57,23.2.2,9.8.33,19.6.49,29.41.1,6,3.76,7,8.83,6.58,13-1.09,26.1-2,39.15-3,8.31-.6,16.67-.81,24.94-1.71s8.29-1.41,7.34-9.67c-1.89-16.54-5.38-33-3-49.8A28.13,28.13,0,0,0,149.39,134.58ZM79.1,43.47c8.92.81,17,1.8,25.09,2.21,7.52.38,15.08,0,22.61.22,9.29.23,18.59.56,27.87,1.09,3.8.22,5.85-1.08,5.86-4.94,0-4.55.51-9.22-.38-13.61-1-4.92-2.42-9.28-9.52-10.21-10.55-1.38-20.87-2.35-31.55-1.66-12.43.8-24.95.19-38.16.19Z" transform="translate(-13.12 -6.47)"/><path d="M158,81.42c.24-5.93,4.58-10.76,9.28-10.34,3.55.32,6.86,5.91,6.71,11.34-.12,4.41-4.56,8.92-8.78,8.93C161.11,91.36,157.74,86.72,158,81.42Z" transform="translate(-13.12 -6.47)"/><path d="M87.75,143.46c1.69,0,2.35-.19,2.81,0,11.75,5.72,23.74,1.18,35.63.87,1.89-.05,4.15-.86,5.57-.08,1.75,1,2.81,3.19,4.17,4.87-2.09,1.09-4.08,2.69-6.31,3.13-2,.4-4.3-.69-6.47-.73-12.65-.2-25.29-.26-37.94-.45a10.83,10.83,0,0,1-5-1,4.71,4.71,0,0,1-2.15-3.46c0-.82,1.74-2.09,2.88-2.36A52.48,52.48,0,0,1,87.75,143.46Z" transform="translate(-13.12 -6.47)"/><path d="M98.49,181.55c-2.65.15-5.35.65-7.93.31a4.55,4.55,0,0,1-3-3.08c-.14-.89,1.61-2.87,2.72-3,14.58-2.22,29.17-4.4,43.83-6,2-.22,4.33,2.51,6.51,3.87-1.85,1-3.59,2.58-5.57,3-6.87,1.35-13.81,2.35-20.74,3.37-5.24.77-10.51,1.35-15.76,2Z" transform="translate(-13.12 -6.47)"/><path d="M111.19,159.4c5.12,0,10.28-.35,15.34.18,2,.2,3.69,2.42,5.52,3.73-1.78.87-3.54,2.46-5.34,2.5-8.51.19-17-.16-25.55,0-2.1,0-4.18,1.51-6.27,1.49-1.81,0-4.53-.7-5.22-2C88.46,163,89,160,92.44,159.9c6.24-.26,12.5-.07,18.75-.07Z" transform="translate(-13.12 -6.47)"/></svg>