<svg id="Layer_1" data-name="Layer 1" xmlns="http://www.w3.org/2000/svg" viewBox="0 0 420.92 430.6"><defs><style>.cls-1{fill:#fff;opacity:0.25;}</style></defs><title>folding-layout</title><polygon class="cls-1" points="119.28 233.9 198.22 192.44 288.45 213.5 208 269.14 119.28 233.9"/><path d="M339,390.67c-12.7-2.07-26-1.69-39.62-2.24l.44,6.5c-4.2-5.34-4.88-5.14-9.58-1.65-9.07,6.75-18.43,13.1-27.65,19.65-10.57,7.51-21,15.16-31.71,22.52a155.59,155.59,0,0,1-14,8.16c-.62.34-1.92-.25-2.77-.68Q192,431.58,169.89,420.16c-3.11-1.59-6.22-3.23-9.46-4.51A86.81,86.81,0,0,1,134,399.13c-4-3.64-9-4.36-14.44-4.07-16.93.89-33.88,1.88-50.82,1.82-15-.05-29.91-1.47-44.86-2.25-2.22-.12-4.61.51-6.63-.14-5.11-1.62-6.12-6.09-6.42-10.78-1.74-27.37-.7-54.71.54-82.08.69-15.28-.11-30.63.06-45.94q.73-65.89,1.72-131.77c.15-10.48.43-21,.7-31.44a20.53,20.53,0,0,1,.61-3.28c23,1.77,45.38-1.75,67.91-2.81,16.25-.76,32.56-.15,49,.68-2.92.42-5.86,1.3-8.77,1.2-26.53-.87-52.91,1.21-79.3,3.52-7.28.64-14.65.33-22,.28-2.93,0-4.22,1-4.23,4-.1,15-.37,30-.46,44.93-.08,14,0,28,0,41.93,0,20.61,0,41.22,0,62.43H38.43l.07,1.44c-5.65.71-11.3,1.89-17,2-5.37.1-6.26,2.64-6.16,7.21.36,16.48.82,33,.54,49.44-.2,11.59-1.56,23.17-2.4,34.75-.06.83-.21,1.66-.19,2.49.34,13.58.72,27.16,1,40.73.08,3.22,1.71,5,4.79,5.33,6.61.65,13.22,1.39,19.85,1.66,20.43.83,40.86,1.69,61.3,2.05,7.11.13,14.26-1,21.34-2,1.11-.15,2.65-2.18,2.78-3.47a105,105,0,0,0,.13-11l2-.32c.51,1,1.37,2,1.46,3a43.21,43.21,0,0,1,.13,8c-.37,3.89,1,6.28,4.75,7.61a16.26,16.26,0,0,1,4.95,3.3c7.59,6.64,16.3,11.19,25.54,15.21,8.35,3.63,16.07,8.7,24.11,13.07,7.7,4.18,15.45,8.26,23.56,12.58,0-4.1-.23-7.4.11-10.63.14-1.32,1.52-2.51,2.34-3.76.86,1.2,2.34,2.33,2.46,3.6.34,3.57.12,7.19.12,11.69,7.82-5.09,14.82-9.44,21.62-14.1,14.67-10.05,29.24-20.26,43.85-30.4.41-.28.84-.55,1.26-.82,6.22-4,10.8-8.63,9.09-17.06-.42-2.09,1.28-4.61,2-6.93.79,2.18,2.1,4.32,2.27,6.55.47,6.09-1,7.77,8.15,7.72,20.94-.1,41.88,1.28,62.83,2.06,5.16.19,10.32.3,15.48.55,10.3.5,20.59,1.08,30.89,1.62l.5,0c12.1.75,13.37-.23,12.68-12.05-1.1-18.76-2.81-37.49-3.83-56.25-.74-13.62-.67-27.28-1.18-40.92-.54-14.45-1.34-28.89-2-43.33-.05-1.16,0-2.33,0-3.5-.17-8.09-.24-8.17-8.44-8.29-2.24,0-4.48,0-6.72,0l-.24-2.09c2.61-.33,5.27-1.14,7.83-.9,6.76.62,7.08.23,7-6.3-.21-13,.19-25.92-.07-38.87q-.75-37.45-2-74.88c-.26-8.21-1.1-16.39-1.68-24.59l1.25-.41c.53,2.09,1.44,4.17,1.54,6.29,1.3,28.93,2.64,57.85,3.64,86.79.52,15.13.3,30.28.56,45.42.25,14.61.51,29.22,1.07,43.82.83,21.74,1.7,43.48,3,65.19,1,17.6,2.73,35.17,4,52.76.41,5.79.38,11.61.4,17.42a2.85,2.85,0,0,1-1.43,2.21c-.52.19-1.48-.79-2.24-1.24-1.22-.73-2.43-2-3.68-2.07-5.64-.24-11.31.12-17-.18-17.92-1-35.82-2.22-53.74-3.09C348.44,389.3,344.1,390.21,339,390.67Z" transform="translate(-9.86 -13.11)"/><path d="M217.34,319.61c-.52-4-1.34-8.05-1.48-12.1-.22-6.15-.12-12.33.15-18.48.15-3.3-.9-5.38-4-6.57-8.19-3.14-16.38-6.27-24.49-9.59-10.29-4.21-20.47-8.7-30.77-12.9-8.48-3.45-17-6.79-25.61-9.92-9-3.26-18.33-1.23-27.51-1.64-1.71-.08-3.43,0-5.14,0l-.19-1.94c4-.55,8.06-1.44,12.12-1.59,13.13-.48,13.12-.38,13.45-13.48a24.51,24.51,0,0,1,.46-5.95c.31-1.1,1.74-1.88,2.67-2.81.47,1,1.33,2.08,1.36,3.14.14,5.62.06,11.24.06,18.2l21.93-11.32c-.82-.57,25.25-12.83,25.93-13.16,9.7-4.74,19.42-9.45,28.93-14.54,1.45-.77,2.5-3.42,2.64-5.28.4-5.3.19-10.65.31-16a42.65,42.65,0,0,1,.58-4.59h1.75c.28,5.2.62,10.4.84,15.6.41,9.68-.58,8.47,8.52,10.74,17.26,4.3,34.37,9.18,51.62,13.51,7.22,1.81,14.65,2.84,22.18,4.26,2.05-5-1.82-11,1.56-15.9h1.63c.38,4.17,1.2,8.36,1,12.51-.18,4.71,1.21,6.58,6.17,6.36,3.9-.17,7.86.84,11.8,1.33l-.14,2c-1.85.09-3.77.57-5.53.22-7.83-1.56-14.4,1-20.52,5.6q-13.15,9.8-26.36,19.52c-.52.39-18.21,13.24-16.6,11.26a15.7,15.7,0,0,0-2.21.88c-5.74,3.35-11.26,7.15-17.23,10-5.61,2.66-7.57,7.16-7.76,12.6-.33,9.15-.13,18.31-.19,27.46a14.91,14.91,0,0,1-.38,2.34Zm-71.29-79.39-12.21,7.27c3.47,1.16,6.52,2,9.38,3.18,12.38,5.32,24.62,11,37.07,16.1,10.43,4.3,21.05,8.14,31.67,12a7.65,7.65,0,0,0,5.55-.11c11.48-6.17,44.12-28.29,43.1-27.2.44.5,22.33-14.18,33.65-22.61a32.36,32.36,0,0,0-3.8-1.59c-11.52-2.48-23.07-4.81-34.56-7.41-14.53-3.3-28.1-10-43.33-11.25a16.25,16.25,0,0,0-9.38,1.68c-7.72,3.78-15.52,7.42-23.29,11.11l-5.36,2.54C174.65,224.11,147.12,242.51,146.05,240.23Z" transform="translate(-9.86 -13.11)"/><path d="M218.92,23.24V40.57l-2,.11-1.22-24c-2.51,2.2-4.46,3.84-6.34,5.55q-25.22,23.07-50.41,46.18c-7.2,6.62-14.18,13.48-21.44,20a11.91,11.91,0,0,0-4.39,10c.47,12.81.63,25.62.91,38.43,0,1.24,0,2.49,0,3.73l-1.61.34c-.8-2.86-2.27-5.71-2.29-8.57-.09-12.45,0-24.91.56-37.35a11.69,11.69,0,0,1,3.54-7.09q14.72-14.17,30-27.8c11.89-10.59,24.14-20.78,36-31.39,4.7-4.19,8.76-9.09,13.18-13.6,2.5-2.55,8-2.69,10.67-.41a28.46,28.46,0,0,1,2.18,2.05c11.38,11.79,24.38,22,33.77,35.72a19.23,19.23,0,0,0,3.09,3.25c9.5,8.53,18.94,17.14,28.62,25.46a10.09,10.09,0,0,0,6.45,2.07q22.88-1,45.74-2.47c12.12-.8,24.2-2,36.31-2.87,10.08-.69,20.19-1.05,30.28-1.56l.33,1.45c-3.18.6-6.34,1.55-9.54,1.75Q371.62,81.47,342,83.06c-13.62.74-27.25,1.35-40.88,1.93-4.62.2-6.41,2.45-6.1,7a183.85,183.85,0,0,1,.28,26.69c-1.07-4.93-2.58-9.81-3.09-14.8s.06-10.28-.07-15.42c0-1.49-.44-3.44-1.43-4.38-9-8.56-18.44-16.69-27.24-25.45-7.16-7.14-13.53-15.07-20.44-22.46-2.56-2.74-5.75-4.87-8.5-7.44-4-3.71-7.77-7.58-11.66-11.35-.58-.56-1.27-1-2.41-1.89-3,6.28,3.58,8.42,3.83,13.36Z" transform="translate(-9.86 -13.11)"/><path d="M72.18,294.23c-8.77,6.94-9.87,16.5-10.83,25.51,5.38-.19,10.25-.81,15-.42,5.09.41,8.45,3.6,9.77,8.67,1.62,6.22-1.43,10.84-5.87,14.28a40.44,40.44,0,0,1-11.47,5.87c-5.63,1.95-11.87-2-15.81-8.59-4.6-7.74-4.37-16-2.65-24.19a162.23,162.23,0,0,1,6.39-21.95c3.54-9.77,13-13.42,22.26-8.93.83.4,1.44,2.06,1.46,3.14,0,1.44-.73,2.88-1,4.35C78.29,298.41,77.91,298.57,72.18,294.23Zm-7.37,35.7-1.35,1.43c-1.58-1.66-3.88-3-4.61-5-3.9-10.54-1-20.29,4.77-29.25,1.66-2.59,4.78-4.3,7.38-6.21,1.19-.88,2.8-1.17,4.08-2,.16-.1-.44-2.28-.89-2.36-1.8-.31-4.49-1-5.39-.05-3.76,3.81-8.48,7.65-10.09,12.41a90.6,90.6,0,0,0-4.17,24.42c-.26,5.38,1.32,11.1,3.19,16.26,2.15,5.94,7.45,6.71,12.63,2.65-5.43-6-6.6-9.74-3.28-12.82,1.81-1.68,4.9-3.17,7.17-2.87,2.53.33,4.78,2.79,7.26,4.4-.64-5.07-6-9.11-11-8.56C66.64,322.82,64.51,325.64,64.81,329.93Zm8.07,8.92,2.94-7C70.14,331.73,69.68,332.57,72.88,338.85Z" transform="translate(-9.86 -13.11)"/><path d="M168.49,140.17c11.35-4.16,11.29-4.16,11.85,6.45.36,7,.89,13.95,1.42,20.91.44,5.71-1,7.09-9.29,7.36-4.56.15-3.33-3.66-3.39-6.25-.12-4.58,0-9.16,0-13.75l-1.27-.57c-.84,2-2.25,3.89-2.39,5.9-.31,4.47.22,9,0,13.47-.08,1.54-1.34,4.25-2.17,4.29-2.71.15-6.51,1.32-7.44-2.89a71.7,71.7,0,0,1-1-8.82c-2.65-1.58-5.38-2.32-6.57-4.09-2.77-4.13-1.89-6.47,2.69-8.61,8.6-4,8.43-2.17,7.62-14-.37-5.39-.77-10.79-.93-16.19a4.09,4.09,0,0,1,1.66-2.92c2.76-1.88,9.12,1.33,9.23,4.66C168.6,129.9,168.49,134.64,168.49,140.17Zm4.57,30.68c5-2.94,5.85-22.67,2.18-29.38-1,.52-2,1-3,1.58-4.64,2.72-6.11,2-6.47-3.25-.26-3.81-.22-7.64-.42-11.45a28.88,28.88,0,0,0-.71-3.85l-1.43,0a15.69,15.69,0,0,0-.69,3.45c.12,5.32-.15,10.72.73,15.92,1,6.08-1.35,9.4-6.61,11.6a40.45,40.45,0,0,0-5.24,3.15c1.11.78,1.57.69,2,.52,1.74-.68,3.46-1.38,5.2-2.07.24,1.89.64,3.78.7,5.68.11,3.59,0,7.19,0,10.78H161a13.84,13.84,0,0,0,.41-2.31c0-3,0-6,0-9-.17-7.4,3.39-12.23,11.66-15.06Z" transform="translate(-9.86 -13.11)"/><path d="M376,177.55c-2.92.91-4.74,1.18-6.27,2-4.77,2.6-9.17,6.14-14.2,8-7.22,2.63-10.94-.34-13.28-7.69-2.23-7-1.66-13.89-.09-20.67,1.93-8.35,2.92-17.11,8.27-24.34a6.91,6.91,0,0,0,.68-2.17c-.36-.23-.5-.41-.64-.4-10.92.26-11.36-.16-9.38-10.84.22-1.2,1.89-2.95,3-3,6.56-.52,13.18-1.11,19.72-.72,6.94.41,13.81,1.87,20.71,2.87l.28,1.86c-.45.19-.89.41-1.35.56-16.68,5.36-23.06,19-26.84,34.3-.67,2.71,1.06,7.16,3.22,9,1.53,1.32,5.74,0,8.59-.82,1.63-.44,2.81-2.38,4.43-3.09.74-.33,3,.63,3,1.07C376.06,168.33,376,173.26,376,177.55Zm-3.76-10.08a6.6,6.6,0,0,0-1.68.52c-4.2,3-8.38,3.61-12.92.52-4.73-3.22-5.54-7.82-4.51-12.78a58.58,58.58,0,0,1,3.82-11.31A52.48,52.48,0,0,1,375.27,122c-1.42-.66-2.25-1.4-3.06-1.37-7.59.28-15.21.4-22.76,1.16-5.87.6-6.12,1.46-4.63,7.77l15.21-2a17.06,17.06,0,0,1-1.31,2.79c-13.29,14.24-15.46,31.33-13,49.72.58,4.32,3,5.25,6.58,4.64a16.81,16.81,0,0,0,6.08-2.1c3.79-2.4,7.08-5.65,11-7.71C372.79,173.15,373.61,171.18,372.23,167.46Z" transform="translate(-9.86 -13.11)"/><path d="M177.22,315.72c-4.88-1.49-9.33-2.75-13.7-4.21-6.22-2.08-7.43-4.09-7.63-12,.26-.19.55-.57.78-.53,11.11,1.8,22.29,3.33,33.3,5.6,5.36,1.11,6,3.35,4.46,7.92-4,11.78-7.88,23.62-11.95,35.38-4,11.44-8.14,22.81-12.12,34.24-1,2.81-2.49,3.69-5.28,2.58a37.8,37.8,0,0,0-4.33-1.18c-4.74-1.25-6-3.52-4.4-8q9.87-27.69,19.74-55.38C176.53,318.84,176.76,317.53,177.22,315.72Zm14.64-7.62-31.52-5.48L158.08,306c1.55.55,3.1,1.13,4.66,1.65,3.93,1.33,7.8,3,11.83,3.88,6.82,1.53,7.46,2.3,5.19,8.76-4.5,12.85-9.09,25.67-13.5,38.55-2.24,6.55-4.16,13.21-6.2,19.74,5.69,2.6,6,2.6,7.82-2.28,2.18-5.75,4.1-11.6,6.14-17.4Z" transform="translate(-9.86 -13.11)"/><path d="M266.4,340.53c10,3.45,11.7,5.65,10.15,15.76-1.38,9-3.12,18-10.06,25-5,5.08-11.73,7.54-18,5.54-7-2.25-8.08-8.28-8.79-14.31-1-8.67.93-16.82,4.89-24.55,1.91-3.72,2.68-7-1.23-10.48s-5.44-8.69-4.36-14.19c1.93-9.9,5.5-18.82,14.41-24.7,4-2.64,8.09-4.12,12.59-1.75,4.75,2.5,8.35,5.88,8.46,11.91A61.44,61.44,0,0,1,266.4,340.53ZM242,367l1.29.51c.13,2.32-.09,4.73.46,6.94.89,3.58,1,8.12,5.63,9.15,4.87,1.09,9.28.33,13.14-3.74,7.09-7.48,9.09-16.66,10.2-26.33.55-4.79-.66-7.77-6.12-8.79-5.12-1-5.5-2.75-3-7.31a59,59,0,0,0,7.27-27.15c.12-4.75-1.81-8.79-5.9-10-3.1-.91-7.59-.07-10.43,1.66-8.57,5.23-10.65,14.36-12.18,23.5a10.79,10.79,0,0,0,4.84,11.34c5.22,3.1,3.54,6.35,2,10.32C246.61,353.67,244.34,360.34,242,367Z" transform="translate(-9.86 -13.11)"/><path d="M73.49,191.43,74.68,176C70.12,175,66,174.39,62.29,173c-8.73-3.28-11.68-9.67-9-19.8a65.48,65.48,0,0,1,4.93-12.51c2.17-4.36,13-4.19,17.49,0,5.08,4.81,5,8.95-.5,17.9a32.69,32.69,0,0,0-6-1.79c-1.31-.15-2.74.74-4.12,1.17.62,1.54,1.07,4.29,1.89,4.4,3.83.52,7.87.94,11.61.21,5.71-1.11,7.26-.81,7.53,4.83.43,9,.19,17.95.23,26.92,0,3.19-1.46,4.91-4.72,5.21-5,.46-9.89,1.43-14.85,1.56-6.18.16-9-2.86-9.82-10.45Zm1.22-37.88c0-3.3,1.11-7.31-.24-8.48-2.61-2.26-7-4.58-10-3.89-6,1.38-6.72,7.76-7.73,12.84-.86,4.34-3,9.69,1.53,13,4.34,3.16,9.32,5.92,15.27,3.12,3.49-1.64,4.9-.13,4.6,3.61a154.72,154.72,0,0,0-.78,15.92c.1,3.87-1.33,5-4.93,4.74-3.42-.23-6.87,0-10.3,0l-.12,1.54c1.83.42,3.68,1.25,5.49,1.16,3.64-.17,7.24-1.07,10.88-1.23,3.12-.14,4.69-1.49,4.71-4.5.06-8.08,0-16.15,0-24.35-1.57-.13-2.2-.24-2.82-.23-4.14,0-8.35.52-12.42,0-4.72-.64-7.35-5.48-6.45-10.2,1-5.26,4.37-5,8.27-3.79A49.6,49.6,0,0,0,74.71,153.55Z" transform="translate(-9.86 -13.11)"/><path d="M259.47,137.78c-1.23-3.18-1.8-5.46-3-7.38-.77-1.26-2.36-2.73-3.63-2.78s-2.85,1.42-3.57,2.66c-3,5.14-1.64,8.34,4,11.06a22.12,22.12,0,0,1,3.75,2.9,20,20,0,0,1-3.49,2.87c-5.26,2.65-8.75,9.95-7.4,17.16,1.92-1.48,3.35-3.1,5.15-3.82,1.38-.56,3.7-.61,4.73.21a18.77,18.77,0,0,1,4.53,5.85,6.14,6.14,0,0,1,.53,4.68A13.84,13.84,0,0,1,246.34,179a15.4,15.4,0,0,1-13-14.49c-.21-5.18,1.61-10.66,3.5-15.64,1.13-3,2.21-5,.1-8.08-3.71-5.46.22-20,6-23.74a42.79,42.79,0,0,1,5.71-3.06c4.76-2.11,7.78-1.07,10.46,3.48,1.68,2.86,3.38,5.7,5,8.61a3.52,3.52,0,0,1,.48,2.63C263.22,131.46,261.58,134.09,259.47,137.78ZM249,143.28c-5.87-7.16-6.5-11.45-1.38-17.24,4.37-4.94,8.35-1.09,12.89.75-1.66-3.84-3.25-8.67-6.32-9.94-2.48-1-8.23,1.26-9.9,3.8a40.25,40.25,0,0,0-5.67,16c-.27,1.84,4.13,4.34,6.35,6.58a5.41,5.41,0,0,1,.66,1.57c-6.64,3.74-8.45,10.24-9.2,17.08-.54,5,1.43,9.39,5.85,11.85a10.94,10.94,0,0,0,12.23-.69c4.53-3.23,4.47-4.85-.44-8.67a7.79,7.79,0,0,1-2.5,1.32c-2.67.31-6.18,1.44-7.82.2s-2.2-5.24-1.51-7.5C243.79,153.48,246.42,148.92,249,143.28Z" transform="translate(-9.86 -13.11)"/><path d="M339.73,288.54l10.34-18.47c2,.6,3.41,1.44,4.86,1.42,6.44-.11,6.79-.17,6.26,6.21-1.2,14.59-3.55,29.12-3.87,43.72-.15,7-.75,10.71-8.57,10.12-1.42-.11-2.94,1.25-5.74,2.54,0-3.79-.15-6.77,0-9.73.57-9.47,1.33-18.94,1.86-28.41C345.18,290.93,345,290.92,339.73,288.54Zm18.45-13.8c-6.89-.14-14.91,7.39-12.38,11.09,3.72,5.43,2,10.75,1.68,16.23-.53,8.69-1.06,17.38-1.59,26.21,5.61,0,7.44-2.1,7.76-6.68.64-9.09,2-18.12,2.87-27.19C357.17,287.87,357.63,281.32,358.18,274.74Z" transform="translate(-9.86 -13.11)"/><path d="M294.69,285c-.66-11.62-2-23.25-.06-34.84l1.72,0V285Z" transform="translate(-9.86 -13.11)"/><path d="M216.1,368.08a20.13,20.13,0,0,1-1.11-4.46c-.13-6.8-.19-13.61,0-20.4,0-1.23,1.51-2.42,2.33-3.63.52,1.24,1.51,2.49,1.49,3.73-.1,8.19-.42,16.38-.67,24.57Z" transform="translate(-9.86 -13.11)"/><path d="M126.1,305.34c-.67-1.88-1.83-3.73-1.94-5.64-.35-6.26-.39-12.54-.37-18.82,0-.8,1.06-1.6,1.63-2.4.62.64,1.77,1.26,1.78,1.91.12,8.17.08,16.33.08,24.5Z" transform="translate(-9.86 -13.11)"/><path d="M218.51,381.48c0,5.79,0,11.59-.07,17.38,0,.5-1.05,1.37-1.61,1.37A2.3,2.3,0,0,1,215,399c-1.34-6-.54-11.82.77-17.58Z" transform="translate(-9.86 -13.11)"/><path d="M293.91,340.68c0-7,0-14,.07-21,0-.55,1-1.44,1.56-1.52s1.77.73,1.76,1.15c-.05,7.14-.25,14.29-.41,21.43Z" transform="translate(-9.86 -13.11)"/><path d="M293.68,174.4c-1-7.6-2.69-15.2-.28-22.83l1.5,0v22.81Z" transform="translate(-9.86 -13.11)"/><path d="M124.31,350.58c0-6-.08-11.94.1-17.91,0-.73,1.45-1.41,2.23-2.11.53.71,1.54,1.44,1.5,2.12-.3,6-.79,12-1.22,17.95Z" transform="translate(-9.86 -13.11)"/><path d="M125.32,195.65V171.93H127v23.63Z" transform="translate(-9.86 -13.11)"/><path d="M332.15,229.83c9.14-2.3,18.2-.54,27.25,1.8h-27.2Z" transform="translate(-9.86 -13.11)"/><path d="M392.63,227.09l-22.38,1.61c.23-.49.47-2.2,1.27-2.53C378.55,223.34,385.58,224.51,392.63,227.09Z" transform="translate(-9.86 -13.11)"/><path d="M174.83,270.85c-8.65.53-15-4.35-22-7.4C155.14,261.49,166.43,265.26,174.83,270.85Z" transform="translate(-9.86 -13.11)"/><path d="M215.71,82.87V98.74c-3.09-5.41-2.93-10.7-1.67-16Z" transform="translate(-9.86 -13.11)"/><path d="M55.05,246.66c5.55-4,15-4,19.73,0Z" transform="translate(-9.86 -13.11)"/><path d="M38.41,255.39c-4,.5-8.2,2.94-12-.7l.15-1.68,11.82,1.14Z" transform="translate(-9.86 -13.11)"/><path d="M44.41,95.41H58.89v1H44.42Z" transform="translate(-9.86 -13.11)"/><path d="M249.19,208.88l-16.9-4.64.62-2,16.72,5.29Z" transform="translate(-9.86 -13.11)"/><path d="M181.15,57.41l11.13-10.31C191.42,52.53,188.5,55.23,181.15,57.41Z" transform="translate(-9.86 -13.11)"/><path d="M246.42,365.36c1-5,1.59-10.19,3.07-15.08,1.75-5.83,4.46-6.29,9.67-3.43,8.52,4.68,8,17.51,4.25,25.54-1.85,4-4.28,8.1-9.6,7-4.83-1-5.92-5.36-6.74-9.52a32,32,0,0,1-.27-4.46Zm4.5-.47c.18,2.16-.07,4.46.66,6.39.61,1.63,2.35,2.84,3.58,4.23,1.27-1.17,3.16-2.11,3.7-3.56a42.76,42.76,0,0,0,2.64-10.52,14.71,14.71,0,0,0-1.3-7.7c-.77-1.55-3.14-2.69-5-3.11-.61-.14-2.36,2.42-2.72,4C251.66,357.93,251.4,361.43,250.92,364.89Z" transform="translate(-9.86 -13.11)"/><path d="M246.35,321.59c2.75-5.76,5-11.82,8.41-17.19,2.6-4.14,8.76-2.55,10.54,2.52,2.67,7.6,2.23,15-2.19,22-4,6.28-10.41,6.13-14-.53-1-1.83-1.25-4.07-1.85-6.12Zm16.91-3.68c-.7-3.82-1-6.64-1.84-9.27a3.67,3.67,0,0,0-3.19-1.69c-5.79,1.95-9.2,17.21-4.87,21.5,1.73,1.72,4.07,3.21,5.66.06C260.83,324.91,262,321,263.26,317.91Z" transform="translate(-9.86 -13.11)"/><path d="M323.11,365.71a7.53,7.53,0,0,1-1.13-1.8,2,2,0,0,1,.42-1.47c.28-.4.83-.61,1.24-.94,1.32-1.07,1.59-1.74.74-3.28-1-1.78,0-3.59-.39-5.35,0-.2.36-.65.63-.72a1,1,0,0,1,.81.43,18.72,18.72,0,0,1,1,1.87,16.93,16.93,0,0,1,2.45-1.24c2.63-.86,5.29-1.63,7.95-2.39a1.54,1.54,0,0,1,2,.74,2.24,2.24,0,0,1-.17,2.67c-.23.26-.9.14-1.37.18a8.31,8.31,0,0,0-2,.15c-1.59.55-3.13,1.22-4.67,1.89-1.07.46-2.11,1-3.13,1.55-.23.13-.3.55-.45.83.33.07.7.28,1,.2,1.92-.52,3.8-1.21,5.74-1.6a6.74,6.74,0,0,1,3.34.19c.9.31,1.22,0,1.72-.54.82-.83,1.68-1.62,2.57-2.37a4.73,4.73,0,0,1,1.36-.75,3.21,3.21,0,0,1,3.66.5c.92,1,.8,2.15.37,3.42-.83,2.38-2.56,4-4.39,5.52l-.79.69a4.25,4.25,0,0,0,5.12-1.93,14,14,0,0,1,5.35-6,8.78,8.78,0,0,1,3.93-1.62,2.24,2.24,0,0,1,1.21.19,13.28,13.28,0,0,1,1.5,1,20.52,20.52,0,0,1,2.14-1.95,1.27,1.27,0,0,1,1.15.43,17.2,17.2,0,0,1,1,3.23c.5,2.65,2.25,4.33,4.36,5.73.58.38.91.23,1.09-.5.51-2,1.19-4,1.64-6a28.09,28.09,0,0,0,.46-4.14c.06-.91,0-1.84,1.25-1.91s1.81.68,2.11,1.75a4,4,0,0,1,.05.72c6.7-2.47,13.2-5.48,20.54-4.24a2.06,2.06,0,0,1-2,2.47c-3.19.61-6.36,1.38-9.52,2.13-1,.24-2,.63-2.93.94-1.58.5-2.06,1.73-2.1,3.2-.08,3.25-.07,6.51-.23,9.76,0,.57-.76,1.11-1.17,1.66-.52-.42-1.25-.75-1.5-1.29a5.73,5.73,0,0,1-.25-2.26c0-2.86,0-5.72,0-8.56-1.47.31-2.38,2-2.66,3.86a26.8,26.8,0,0,1-1.68,5.9c-.33.84-1.24,1.2-2.41.73a7.15,7.15,0,0,1-2.83-2.17c-1.07-1.25-2.31-2.34-3.67-3.69-.15,1.18-.29,2.24-.43,3.3a21.35,21.35,0,0,1-.41,2.93,1.88,1.88,0,0,1-1.09,1c-.17.07-.7-.39-.86-.72-.4-.84-.68-1.73-1.07-2.77a6.38,6.38,0,0,0-1.36,1.1c-1.53,2.11-3.74,3.27-6,4.4-1.08.55-2.6-.27-3.4-1.75a3.81,3.81,0,0,0-.73-1.2,2,2,0,0,0-1.37-.49,38.93,38.93,0,0,1-4,.86,10.65,10.65,0,0,1-3.05-.8c.25,1.44,1,2.76-.16,4.35a9.72,9.72,0,0,1-1.51-2.42,54.6,54.6,0,0,1-1.23-6.72c-.08-.66.52-1.39.85-2.19a15.75,15.75,0,0,0-7.59,2.51,1.08,1.08,0,0,0-.28.85c.11,1.55.31,3.09.38,4.64a5.34,5.34,0,0,1-.41,1.52c-1.51-.65-1.45-1.93-1.87-2.92a.6.6,0,0,1,0-.13C325.46,364.24,325.46,364.24,323.11,365.71ZM352.18,362c-.58,1.36-1.76,1.88-2.93,2.43-.31.15-.74.44-.76.7-.06.61-.13,1.52.21,1.78a2.16,2.16,0,0,0,1.91.16,11,11,0,0,0,5.63-5.65,5.4,5.4,0,0,0,0-2c-.61.23-1.23.44-1.83.7-.14.06-.19.32-.27.49C353.75,361.53,353.28,362.29,352.18,362Zm-7.46-5.14a6.82,6.82,0,0,0-5.88,5.51C340.9,360.7,343.25,359.43,344.72,356.88Z" transform="translate(-9.86 -13.11)"/><path d="M245.73,238.68c2.55.43,4.92-.37,7.16.69-.58,1.69-2.05,1.7-3.24,1.85-2.68.32-5.38.44-8.07.59-1.27.07-1.68-.68-1.26-2.46a7.17,7.17,0,0,0-.95.36c-1,.55-1.9,1-3,.34-.22-.14-.72.15-1.16.27l-2.22-1.48c-1.08,1-.11,3.16-2.14,4.13-.22-1.16-.47-2.18-.58-3.21a37.4,37.4,0,0,1-.19-4,2.07,2.07,0,0,1,.56-1.23c.09-.1.67.25,1.12.44.1-.2.32-.45.32-.7a1.33,1.33,0,0,1,1.41-1.42,1.87,1.87,0,0,1,2,1.58,7,7,0,0,1-.36,2.17c-.38,1.37-.38,1.43,1,1.75a4.4,4.4,0,0,0,1.33.18c2.51-.21,2.21-.39,2-2.3a8.19,8.19,0,0,1,.18-2.23,1,1,0,0,1,.68-.58c.15,0,.47.3.58.53a2.7,2.7,0,0,0,2.73,1.38c1.23-.34,2.44-.73,3.67-1,.76-.19,1.69-.4,2.13.46s-.18,1.56-.9,2.06C247.71,237.35,246.82,237.94,245.73,238.68Z" transform="translate(-9.86 -13.11)"/><path d="M185.35,243.11c-2.48,1.59-4.94,3.22-7.83,4a1.44,1.44,0,0,1-.56,0,6.71,6.71,0,0,1-.69-.15l-1-1.79-.54.36a5.08,5.08,0,0,1,.11-3.85,8.73,8.73,0,0,1,5.26-4.29,1.75,1.75,0,0,1,2.41,1.23c.23.7,0,1-.75.88a3.93,3.93,0,0,0-3.52,1.4l.48,1.53c-.27,0-.36.1-.41.07-.44-.25-.87-.52-1.31-.78a7.45,7.45,0,0,0-1.08,2.26c-.09.8.84,1,1.44.75a33.35,33.35,0,0,0,4.43-1.83c1.05-.54,1.93-1.4,2.94-2a4.5,4.5,0,0,1,1.41-.27l.61-2.1c.88.15,1.29.58,1.15,1.4s-.38,1.49-.5,2.25a7.91,7.91,0,0,0,0,1.4c.45,0,1,.06,1.34-.15a4.88,4.88,0,0,0,2.33-3.54c.29-2.44,1.73-2.63,3.62-2.26,1.36.26,2.86-.18,4.29-.32a12.71,12.71,0,0,1,2.23-.19c.39,0,.74.48,1.11.74-.31.37-.55.95-.93,1.06a28.93,28.93,0,0,1-4.25.91c-1,.13-1.44.36-1.16,1.47a24.46,24.46,0,0,0,.66,2.93c.29.27.88.7.83.78a16,16,0,0,1-1.23,1.79c-.32-.32-.83-.59-.93-1-.4-1.45-.67-2.94-1-4.4l-1.53-.13a42.78,42.78,0,0,1-3.16,4.12c-1.17,1.22-2.36,1-3.34-.4A16.81,16.81,0,0,1,185.35,243.11Z" transform="translate(-9.86 -13.11)"/><path d="M217.86,242l1.05.26c-.23.46-.33,1-.65,1.24a1.19,1.19,0,0,1-1.15,0,6.43,6.43,0,0,1-.92-1.75,5.59,5.59,0,0,1-.2-1.16c-.58.12-1.07.24-1.58.32-.94.15-1.56.51-1.65,1.62a5.65,5.65,0,0,1-.83,1.73c-1.68-1.14-1.51-2.67-1.54-4.08a20.65,20.65,0,0,1,.23-3.25c0-.36.4-.68.61-1,.36.31.93.57,1,1a9.12,9.12,0,0,1,.14,2.15c.44-.08.86-.18,1.3-.22,1.79-.15,3.06-.81,3.12-2.87,0-.46.13-1.15.93-.92a.92.92,0,0,1,.66,1.32c-.21.71-.37,1.38.47,1.85.12.07.11.73,0,.78C217.48,239.56,217.84,240.78,217.86,242Z" transform="translate(-9.86 -13.11)"/><path d="M223,239.94l4.77,1.68-.05.43a7,7,0,0,1-1.21.32c-1.55.13-3.11.2-4.66.34-.54.05-1.16.23-1.26-.48a3.07,3.07,0,0,1,.41-1.32c.11-.29.38-.55.38-.83,0-1.65,0-3.3,0-4.94a1.08,1.08,0,0,1,.45-.79,8.46,8.46,0,0,1,4.77-.86c.95.05,1.2.67.9,1.83a20.69,20.69,0,0,0-2.63.14,15.86,15.86,0,0,0-2.28.74l.09.54c.66,0,1.32,0,2,0,.92,0,1.84-.09,2.76-.07.18,0,.49.31.48.46a.86.86,0,0,1-.41.66,35.24,35.24,0,0,1-3.7.9C222.89,238.9,222.88,238.81,223,239.94Z" transform="translate(-9.86 -13.11)"/><path d="M249.15,231.46,249,233c-1.66.31-3.35.65-5.05.93-1,.18-2.11.3-2.81-.75a1.17,1.17,0,0,1-.18-.93,1.07,1.07,0,0,1,.79-.49c2.19-.15,4.39-.25,6.58-.36A6.73,6.73,0,0,1,249.15,231.46Z" transform="translate(-9.86 -13.11)"/><path d="M175,223.49c0,.14,2.35-.24,2.39-.1a17.43,17.43,0,0,0,1.82-.25c3.16-.76,6.3-1.61,9.47-2.29a6.39,6.39,0,0,1,2.51.32.83.83,0,0,1,.37.71,45.67,45.67,0,0,1-2.45,4.67c-.31.49-1.17.63-1.79.92-.23.11-.57.11-.71.28-1.47,1.68-3.11,1-4.78.44-.62-.19-1.38.07-2-.1-2.62-.72-5.21-.23-7.82,0a18.94,18.94,0,0,1-2.86-.13,1.88,1.88,0,0,0-2,1.23,44.61,44.61,0,0,1-3.13,4.91,1.41,1.41,0,0,0-.19,1.74,4.53,4.53,0,0,1,.3,2.13,7.67,7.67,0,0,1-6.57,7.23c-3.89.36-5.09-2.43-4.72-5.51.16-1.31,2.95-6.64,5.48-6.3.92.13,2-2.9,2-2.9.14-.19,2-2.27,2-2.28a18.87,18.87,0,0,0-2.77-2.34c-.25-.15-1.06.75-1.66,1.05a2,2,0,0,0-1.29,1.5c0,.13-.53.32-.6.26a1.26,1.26,0,0,1-.3-.49,36.93,36.93,0,0,1-5.3.32,3.78,3.78,0,0,1-3.53-3.17c-.36-1.81-.28-3.63,1.29-5s2.75-2.75,4.2-4a3.58,3.58,0,0,1,5.7,1.81c.38,1.89,1.46,2.35,3.11,2.69a24,24,0,0,1,4.74,1.71,1.18,1.18,0,0,0,1.79-.55c1.65-2.69,3.32-5.37,5.07-8,1-1.47,2.11-2.84,3.18-4.25a4.2,4.2,0,0,1,4-1.65c1.16.1,2.33,0,3.48.13.91.08,1.1.73.64,1.41a18,18,0,0,1-2.3,2.92c-1.49,1.43-5.44,5.51-6,7.48.12,0-1.13,3.08-1,3Zm-19.3,17.62c.22.23.59.9,1.14,1.13,1,.4,3-.55,3.22-1.38a16.26,16.26,0,0,0,.49-2.55,1.5,1.5,0,0,0-2-1.55A4.78,4.78,0,0,0,155.65,241.11Zm-4.54-14.87c2-1.71,2.73-3.93,3.48-6.38a5.58,5.58,0,0,0-1,.21c-.75.34-1.48.72-2.21,1.09-1.28.64-1.38,1.14-.42,2.24l.65.78C149.92,225.11,149.92,225.11,151.11,226.23Zm12.46-2.13.08-.32-3.58-1-.12.45Z" transform="translate(-9.86 -13.11)"/><path d="M161.76,245.18c-3.93,4.22-11.23,4.89-15.26,1.47Z" transform="translate(-9.86 -13.11)"/><path d="M264.31,233.67c3-1.1,5.67-4,9.28-1.24l.21,1.58-9.21.8Z" transform="translate(-9.86 -13.11)"/></svg>