<svg id="Layer_2" data-name="Layer 2" xmlns="http://www.w3.org/2000/svg" viewBox="0 0 179.2 201.46"><title>info-icon</title><path d="M101.35,15.53c-2.41-1.5-3.73-2-4.66-3a27.87,27.87,0,0,1-2.76-3.84c1.57-.52,3.15-1.45,4.71-1.44s3.35.88,5,1.44c7.41,2.5,14.65,6.3,22.25,7.26,11.84,1.5,21.56,6.9,31.19,13a70.85,70.85,0,0,1,28.13,33.53c4.18,9.9,6.68,20.11,10.09,30.1,4.74,13.9,1.24,27.85-2.54,41.35a269.94,269.94,0,0,1-12.28,35.77c-2.11,4.8-7.76,8.13-12,11.9-11.55,10.27-24.62,18.55-39.44,22.4-12.83,3.33-26.19,7-39.81,2.69C66.73,199.6,50.33,185,38.4,165c-5.38-9-11.68-17.67-15.71-27.26a52.41,52.41,0,0,1-.81-39.54c1.59-4.25,2.61-8.7,3.89-13.06,6.32-21.4,16.89-39.93,35.66-53,2-1.4,4-2.92,5.94-4.36C75.88,21.69,84.15,15,95.75,16.43,97,16.59,98.42,16,101.35,15.53ZM39.29,103c.8,28,5.54,49.48,22.69,66.55C71.44,179,82.88,185,95.22,189a56.3,56.3,0,0,0,32.64.8c4-1.08,8.25-2,11.53-4.28,4.07-2.8,6.68-8,10.94-10.21,10.62-5.44,14.49-15.06,17.73-25.27a240.68,240.68,0,0,0,6.79-24.27c2.33-11.32,7.32-22.63,1.87-34.44-.42-.9-.12-2.11-.4-3.11-2-7-3.13-14.44-6.25-20.91-2.48-5.14-7.08-9.42-11.28-13.52A127.27,127.27,0,0,0,145,42.58c-2.73-2-6.28-5.11-8.87-4.62-5.42,1-9.86-.67-14.71-1.91-2.29-.58-4.87-.05-7.32.05-5.57.24-11.14.57-16.71.76-2.54.09-5.12-.37-7.61-.05C79.39,38.14,71.92,45,65.38,52.07A101.1,101.1,0,0,0,48.63,76C43.83,86,41.29,97,39.29,103Z" transform="translate(-18.4 -7.27)"/><path d="M95.9,108.82c5.84-.66,11.19-1.44,16.56-1.82,8.33-.59,12.44,3.32,12.49,11.65.09,13.82.25,27.65.14,41.47-.06,8.19-5.46,12.66-13.42,11.18-4.4-.82-9.1-1.5-12.92-3.59-5.3-2.9-7.16-8.65-5.51-14.19C97.55,139.06,96.21,124.38,95.9,108.82Z" transform="translate(-18.4 -7.27)"/><path d="M94.84,85.47c0-7.77,6.89-16.1,13.11-15.86,4.57.17,13.41,9.33,13.42,13.91,0,7.28-8,15.51-15.21,15.54C100.33,99.09,94.83,92.49,94.84,85.47Z" transform="translate(-18.4 -7.27)"/></svg>