<svg id="Layer_4" data-name="Layer 4" xmlns="http://www.w3.org/2000/svg" viewBox="0 0 159.12 159.97"><path d="M167.32,114.77c1.75,15.47,5.46,30.67,7.56,46.1.52,3.87-1.44,8.39-3.16,12.12-.3.63-5.08-1.32-7.84-1.81a19.88,19.88,0,0,0-5.54-.51c-39.69,3.29-79.37,6.71-119,9.91a56.86,56.86,0,0,1-15.68-.72c-1.65-.34-3.72-4.27-3.9-6.69-1.33-18.09-2.52-36.18-3.11-54.4-.14-4-.83-29.28-.75-33.08.24-10.64.91-21.28,1.43-31.89.29-6.21-3.44-28.19,16.86-28.48,37-.5,111.35-8.53,132.9-1.79,2.62.82-.88,23.45-1.13,26.43a269.66,269.66,0,0,0-.2,32.91C165.71,83.77,166.37,106.49,167.32,114.77Zm-12-80.4c-1.67-.29-26.51-.43-28.21-.44-19.84,1.92-18.19-1.26-38,.31-6.13.49-14.06,1.12-20.24.42-10.2-1.16-17,.2-27.27,0C28,34.37,26,48,26.14,63.6c.12,14,.68,28,.94,42,.33,17.72.55,35.45.81,53.2.17,10.85,6.22,12.66,14.6,11.9,21.5-2,43.16-3.62,64.74-5.43,13.74-1.08,27.56-1.46,41.24-3.09s13.71-2.55,12.14-17.49c-3.13-29.92-8.9-59.7-5-90.09C155.79,51.45,155.66,37.47,155.28,34.37Z" transform="translate(-15.85 -20.85)"/><path d="M129.22,64.87c-2.27.16-3.15.49-3.78.26-16.12-7.11-32,.54-48,2.1-2.54.25-5.53,1.62-7.48.64-2.41-1.27-4-4.32-5.88-6.6,2.75-1.76,5.33-4.25,8.31-5.09,2.67-.76,5.82.59,8.74.44,17-.9,34-2,51.06-2.91a13.65,13.65,0,0,1,6.78,1,6.57,6.57,0,0,1,3.09,4.77c0,1.17-2.23,3.16-3.74,3.66A68,68,0,0,1,129.22,64.87Z" transform="translate(-15.85 -20.85)"/><path d="M79.83,96.93c-3.56-.34-7.24-.19-10.65-1.22a7,7,0,0,1-3.63-5c-.08-1.3,2.51-3.76,4-3.72,19.78-.12,39.57-.18,59.38.6,2.71.1,5.49,4.49,8.24,6.89-2.6,1-5.13,2.93-7.83,3.12-9.36.49-18.76.46-28.16.47-7.11,0-14.23-.27-21.34-.44Z" transform="translate(-15.85 -20.85)"/><path d="M93.58,123.52c-6.9-.15-13.85.21-20.66-.7-2.69-.35-4.93-3.59-7.37-5.52,2.41-1.2,4.81-3.44,7.23-3.44,11.47,0,22.9.72,34.41.73,2.83.06,5.66-2,8.47-2,2.44.05,6.09,1.14,7,3,1.59,3.34.81,7.63-3.82,7.68-8.41.19-16.84-.26-25.26-.44Z" transform="translate(-15.85 -20.85)"/><path d="M43.42,57.3a3.24,3.24,0,0,0-3.6-.33,5.33,5.33,0,0,0-2.38,2.91,4.57,4.57,0,0,0-.34,1.58c0,1.88,1.65,3.3,3.15,4.44a7.47,7.47,0,0,0,2.13,1.27c1.57.51,3.26,0,4.81-.62A2.62,2.62,0,0,0,48.25,66a2.43,2.43,0,0,0,.42-2.06,10.21,10.21,0,0,0-1.2-3.6,3.26,3.26,0,0,0-2.57-2c-.78,0-1.68.46-2.26-.07" transform="translate(-15.85 -20.85)"/><path d="M47.37,86.53l-4.59,0a2.58,2.58,0,0,0-1.14.17,2.65,2.65,0,0,0-.92,1l-1.33,2A3.35,3.35,0,0,0,38.76,91a3.15,3.15,0,0,0,1.5,2.6,20.87,20.87,0,0,0,2.79,2,6.68,6.68,0,0,0,2.53,1A4.45,4.45,0,0,0,50,94a5.5,5.5,0,0,0-.47-5.18,4.91,4.91,0,0,0-4-2.37" transform="translate(-15.85 -20.85)"/><path d="M42.19,117.15c-1.26,1.91-1.32,4.82.49,6.2a6.9,6.9,0,0,0,4.24,1c1.8,0,3.81-.06,5.08-1.33C58.35,116.61,46.79,110.16,42.19,117.15Z" transform="translate(-15.85 -20.85)"/></svg>