<svg id="Layer_6" data-name="Layer 6" xmlns="http://www.w3.org/2000/svg" viewBox="0 0 425.97 202.96"><defs><style>.cls-1{fill:#fff;opacity:0.26;}</style></defs><title>push-center-together</title><polygon class="cls-1" points="140.99 93.61 167.77 63.76 191.58 39.11 210.74 21.23 245.34 64.38 279.24 95.86 220.97 171.77 215.09 169.32 186.56 142.62 141.47 97.99 140.99 93.61"/><path d="M402.46,109.66c-5.1,0-10.21.06-15.32,0-2.77,0-5.53-.41-8.29-.47-1.69,0-3.39.35-5.09.39-3.19.09-6.38,0-9.56.11-4.63.18-9.25.53-13.88.76-5.53.27-11.08.4-16.61.77-5,.33-10,1-14.94,1.36-6.33.52-12.65,1.14-19,1.34a23.58,23.58,0,0,0-10.57,2.93,12.38,12.38,0,0,0-3,2.92c-3.41,3.85-6.88,7.66-10.15,11.62-3.93,4.76-7.57,9.78-11.56,14.48a84.94,84.94,0,0,1-10.15,10.66,151.52,151.52,0,0,0-11,10.62c-2.2,2.23-4.93,3.93-7.42,5.86-.28.22-.67.33-.87.6-1.72,2.26-3.48,4.49-5.07,6.83a5,5,0,0,1-3.26,2.34c-4.78,1.14-8.5-.82-12.28-3.32-2.26-1.49-4.16-3.71-7.15-4-.61-.06-1.15-.75-1.72-1.15a60.13,60.13,0,0,1-5.62-3.94,41,41,0,0,1-4-4.57c-.11-.13-.11-.36-.24-.47-3.47-3-5.73-7.44-10.5-9a4.09,4.09,0,0,1-1.66-1.53c-2.3-3.05-4.89-5.66-8.72-6.81-3.41-1-6-3.31-8.59-5.7a8.34,8.34,0,0,0-2.93-1.72c-3.05-1.05-5.8-2.36-7.54-5.35a13.15,13.15,0,0,0-3-2.87c-2-1.75-4.27-3.3-6.12-5.22-1.56-1.62-2.87-2.62-5.42-2.24-3.41.51-6.93.19-10.41.34-1.33.06-2.66.64-4,.62-2.75,0-5.48-.43-8.23-.52-3.59-.11-7.19-.09-10.79-.09s-7.32-.12-11,.12c-4.23.27-8.43.84-12.64,1.33-3.84.45-7.68,1-11.51,1.48-4.88.63-9.76,1.24-14.63,1.91A4.9,4.9,0,0,1,53.29,128c-1-1.24-1.81-2.6-2.8-3.83a7.39,7.39,0,0,0-2-1.89,6.16,6.16,0,0,1-2.74-3.15c-.77-1.64-2.52-2.86-3.94-4.15a16,16,0,0,0-2.64-1.55,25.5,25.5,0,0,1,.2,2.71,1.3,1.3,0,0,1-.53,1,1.26,1.26,0,0,1-1-.35,6.73,6.73,0,0,1-1.71-2c-1.62-3.94-5-6.35-7.75-9.35a2.59,2.59,0,0,0-.91-.54c-2.12-.91-2.33-1.28-1.78-3.35-2-1.49-2.36-2.72-1.23-4.32a1.93,1.93,0,0,1,1.05-.84c3.43-.44,5.4-3.06,7.7-5.13a59.53,59.53,0,0,1,7.44-6.07c2.56-1.65,5.05-.88,7.53-1.36a97.39,97.39,0,0,1,11-1.49c3.09-.23,6.22,0,9.33,0A51,51,0,0,0,74.56,82c1.06-.14,2-.91,3.08-1.15a23.83,23.83,0,0,1,5.2-.81c3.69,0,7.39.36,11.08.37,2.27,0,4.54-.41,6.81-.6,2.82-.23,5.65-.39,8.47-.64,1.92-.17,3.83-.51,5.76-.67,7.47-.6,15-1,22.38.26,3.21.57,4.78-.93,6.48-2.49,2.57-2.37,4.66-5.26,7.13-7.75,1.93-1.95,4.19-3.55,6.17-5.46,4.27-4.11,8.38-8.39,12.68-12.46,2.81-2.65,5.85-5.06,8.77-7.59,3.84-3.33,7.75-6.59,11.47-10,1.78-1.66,3.17-3.73,4.81-5.55,2.47-2.74,4.94-5.48,7.53-8.1,1.23-1.24,2.84-2.08,4.1-3.3,2.88-2.8,5.65-5.72,8.46-8.59.85-.86,2.65-.36,3.72.82a22,22,0,0,0,2.29,1.59A31.94,31.94,0,0,1,225.6,14c3.06,3.84,6,7.81,8.77,11.84,1.3,1.86,2.11,4,3.36,5.94a62.67,62.67,0,0,0,5.65,7.74,63.15,63.15,0,0,1,6.79,9.51,89.16,89.16,0,0,0,11.18,15c3.17,3.32,5.76,7.18,8.8,10.63,2.45,2.79,5.21,5.29,7.76,8,1.26,1.33,2.28,2.91,3.59,4.19a3.37,3.37,0,0,0,2.41.91c2.26-.27,4.47-1,6.73-1.24a13.73,13.73,0,0,1,4,.58,24.57,24.57,0,0,0,4,.92c3.83.1,7.68.15,11.5-.11,3.15-.21,6.25-1,9.39-1.34,5.37-.63,10.76-1.12,16.13-1.73,1.09-.12,2.13-.62,3.22-.8,3.36-.56,6.71-1.24,10.09-1.51,4.17-.33,8.38-.17,12.55-.44,4.45-.29,8.89-.81,13.32-1.27,2.38-.25,4.75-.69,7.13-.83,1.12-.06,2.27.56,3.42.59a120.24,120.24,0,0,0,12,0,74.79,74.79,0,0,0,9.81-1.82c2.22-.47,4.38-1.42,6.6-1.56a8.49,8.49,0,0,1,4.39,1.46c2.69,1.58,5.26,3.38,7.83,5.17q3.29,2.3,6.4,4.84c.21.17-.15,1.58-.35,1.61-3.48.47-5.26,3.37-7.59,5.36-5.54,4.73-10.78,9.81-16.38,14.46-1.14.95-3.33.67-5.05.83C402.9,111,402.65,110.09,402.46,109.66ZM215.31,30.32c-.67.85-1.29,1.61-1.9,2.39C211.63,35,210,37.38,208,39.53c-1,1.07-2.55,1.56-3.62,2.56-2.12,2-4,4.19-6.1,6.24-4.73,4.69-9.51,9.33-14.24,14-4.2,4.17-8.41,8.33-12.49,12.61-2.7,2.83-5.23,5.83-7.73,8.85-3.08,3.73-6,7.55-9.08,11.32A9.86,9.86,0,0,1,153,97c-2.53,1.82-2.51,4.88-3.64,7.37-.19.41.21,1.33.62,1.73,2.44,2.43,4.86,4.9,7.46,7.14,3.79,3.27,7.87,6.21,11.55,9.58,4.24,3.87,8.29,8,12.23,12.14s7.38,8.37,11.09,12.54a28.67,28.67,0,0,0,3,2.91c3.08,2.57,6.35,4.94,9.3,7.66,5,4.63,9.82,9.46,14.71,14.21.87.85,1.73,1.72,2.59,2.57.16.16.33.39.53.43.91.18,2,.68,2.7.35.85-.4,1.39-1.49,2-2.32.28-.37.36-.9.66-1.24,3.44-3.82,7-7.53,10.34-11.43,2.54-3,4.87-6.12,7.21-9.26,1.29-1.73,2.27-3.69,3.63-5.35,2.8-3.43,5.8-6.69,8.65-10.08,3.47-4.14,6.91-8.29,10.25-12.53,2.35-3,4.47-6.12,6.75-9.15,1.57-2.09,3.26-4.09,4.87-6.16,1.38-1.77,2.72-3.58,4-5.28-1.19-1.81-2.91-1.77-4.52-2a3.89,3.89,0,0,1-1.94-.62c-2.67-2.45-5.31-4.92-7.83-7.52-1.77-1.83-3.32-3.88-5-5.81a33.4,33.4,0,0,1-2.83-3.11c-1.16-1.74-2-3.66-3.87-4.86a8.61,8.61,0,0,1-1.73-1.71c-1.94-2.26-3.74-4.64-5.79-6.78-2.7-2.8-5.64-5.32-7.43-8.93a27.27,27.27,0,0,0-3.93-5.3c-1.24-1.45-2.86-2.6-4-4.11-2.58-3.35-5-6.87-7.47-10.28-.69-.93-1.58-1.72-2.34-2.59C222,36,219.79,32.16,215.31,30.32Zm-78.74,91.92,0,.23c.53,0,1.06,0,1.59,0,2.44.06,2.49-.08,3-2.41.47-2,1.26-4,1.78-6.06.89-3.52,1.73-7,2.47-10.6.31-1.51-.4-2.33-2.08-2.2-3,.23-6.08.49-9.12.52a44.57,44.57,0,0,1-6.47-.52c-5-.69-9.83.35-14.7,1-5.12.73-10.22,1.63-15.42,1.3a13.19,13.19,0,0,1-2.36-.6c-3.23-.84-6.43-2.25-9.69-2.39-7.67-.34-15.36-.09-23-.06-2.24,0-4.49,0-6.72.18-5.27.34-10.53.89-15.8,1.09-2.62.1-5.25-.42-7.89-.56-.53,0-1.08.41-1.62.64a11,11,0,0,0,1.29,1.64c.37.33,1,.32,1.42.64,2.92,2.5,5.85,5,8.69,7.59a56.24,56.24,0,0,1,4.5,4.63c2.3,2.64,4.64,5.25,6.68,8.08,1.92,2.66,3.49,3.74,6.44,2.4a3.1,3.1,0,0,1,1-.17L71,125.93a25,25,0,0,0,2.82-.14c3.24-.59,6.45-1.38,9.7-1.88a46,46,0,0,1,6.35-.38c7.07-.09,14.14-.12,21.21-.19,2,0,4-.11,6-.13,4.06,0,8.13.07,12.18-.09C131.71,123,134.13,122.55,136.56,122.24ZM423.48,92.42a9.24,9.24,0,0,0-1.57-.31q-9.28.22-18.56.48a8.58,8.58,0,0,0-1.53.37,19.69,19.69,0,0,1-2.51.51c-1.17.1-2.36,0-3.54.1-5.27.4-10.54.83-15.81,1.26-.41,0-.82.1-1.23.13-5.5.42-11,1-16.5,1.24-11.23.59-22.47,1-33.7,1.56-.24,0-.47.05-.71.07-7.16.52-14.31,1.13-21.47,1.52-5.05.28-10.13.17-15.18.43-2,.1-3.39,1.41-2.87,3.33a50.5,50.5,0,0,0,2.1,5.57c.09.23.45.35.69.52a24.18,24.18,0,0,0,2.2,1.61,5.5,5.5,0,0,0,2.53,1.07c1.5,0,3-.66,4.49-.79,7.21-.6,14.47-.25,21.65-1.6a28.85,28.85,0,0,1,10.43-.55,3.44,3.44,0,0,0,.88,0c4-.36,8-.75,12.07-1.07,2-.16,4-.13,6-.31,3.15-.28,6.28-.82,9.42-1,3.65-.16,7.31,0,11,0,4.52,0,9.06-.73,13.5.82a4.8,4.8,0,0,0,3-.06,9.86,9.86,0,0,1,5.84,0,17.58,17.58,0,0,0,5.27.07c2.26-.18,4.51-.49,6.74-.88a6.24,6.24,0,0,0,2.83-1.08c3.79-3.12,7.49-6.35,11.18-9.58C421.17,94.87,422.16,93.75,423.48,92.42ZM144.15,98l.56-.5c-1.2-3.52-2.33-7.06-3.63-10.55a24.78,24.78,0,0,0-2.22-4.33,3.21,3.21,0,0,0-1.78-1.53c-3.54-.52-7.1-.94-10.67-1.17-1.36-.09-2.75.53-4.13.59-6.36.3-12.79.06-19.07.91a89.59,89.59,0,0,1-15.48.69,27.55,27.55,0,0,0-9.39,1.09c-3.15,1-6.71,1.75-9.88,1.25-4.92-.78-9.59.31-14.36.49a2,2,0,0,0-1.13.46c-1.38,1.14-3,1.16-4.67,1.27s-3.35,0-4.74,1.35c-2.37,2.26-4.87,4.38-7.27,6.61a29.56,29.56,0,0,0-2,2.32l.34.49a11.68,11.68,0,0,0,1.5.08c2.72-.2,5.44-.54,8.16-.62,5.78-.17,11.56-.15,17.34-.3,13-.34,26-.67,39-1.14a49.25,49.25,0,0,1,14,1,28.19,28.19,0,0,0,3.57.87c1.79.21,3.89.84,5.35.18a11.75,11.75,0,0,1,9.57-.4C136.87,98.76,140.49,97.61,144.15,98ZM215,15.35a9.16,9.16,0,0,0,0-1.52c-.07-.37-.21-.9-.48-1a1.25,1.25,0,0,0-1.09.28,37.65,37.65,0,0,0-3.34,3.37q-4.63,5.59-9.11,11.3a2.8,2.8,0,0,1-2.76,1.1,2.14,2.14,0,0,0-1.64.65,40.91,40.91,0,0,1-7.87,8.36c-3.17,2.43-6,5.34-9,8-3.65,3.27-7.34,6.49-11,9.8-1.16,1.06-2,2.43-3.16,3.53-3,2.93-6.14,5.73-9.11,8.7-2.42,2.42-4.64,5.05-7,7.5-1.48,1.51-3.21,2.76-4.67,4.28-3.15,3.27-3.32,2.86-.54,6.82A7.77,7.77,0,0,1,145.49,89c.47,1.87.69,3.81,1.16,5.68a2.4,2.4,0,0,0,1.26,1.45,1.88,1.88,0,0,0,1.58-.6c2.12-2.47,4.09-5.07,6.23-7.51,3.07-3.5,6.29-6.88,9.39-10.36s5.79-6.84,8.87-10.08c3.42-3.6,7.07-7,10.62-10.48,2.93-2.86,5.9-5.68,8.8-8.57s5.67-5.75,8.47-8.66c1.86-1.94,3.68-3.93,5.48-5.93,2.37-2.65,4.69-5.35,7.06-8,1.08-1.21,2.44-2,1.55-4.25C215.17,19.64,215.27,17.28,215,15.35Zm75.2,74.32-.06.18c-.29,0-.64-.1-.88,0-1.26.63-2.95,1-3.62,2-1,1.47,1.13,4.46,2.95,4.52,3,.1,6,.69,8.89-.7a2.24,2.24,0,0,1,.86-.05c1.73,0,3.46,0,5.19-.12,4.24-.21,8.48-.48,12.72-.7,1.47-.08,2.95-.08,4.42-.19,2.8-.21,5.6-.56,8.4-.72,4.12-.23,8.24-.25,12.36-.53,3.63-.24,7.23-.82,10.86-1,7.16-.44,14.33-.7,21.49-1.1,7.58-.43,15.15-1,22.74-1.39,7.3-.36,14.61-.57,21.91-.8,2.37-.08,4.74,0,7.11-.06.4,0,1.14-.38,1.13-.53a2.13,2.13,0,0,0-.59-1.44c-1.36-1-2.84-1.76-4.24-2.69-1.61-1.07-3-2.72-4.78-3.2a15.48,15.48,0,0,0-9.73.2,10.93,10.93,0,0,1-3,.92c-2.87.2-5.75.26-8.63.3-3.77.06-7.54-.05-11.3.09-2.68.1-5.35.55-8,.76-3.52.29-7,.5-10.56.75-.29,0-.58.1-.87.15a31.61,31.61,0,0,1-4.8.77c-5.34.06-10.64-.17-16,.94-5.5,1.14-11.18,1.45-16.79,2.07a60.87,60.87,0,0,0-6.33.53,65.94,65.94,0,0,1-15.16,2c-1.12,0-2.24.13-3.36.14-2.83,0-5.67.15-8.49,0A17.73,17.73,0,0,1,290.2,89.67Zm-142.3,18.65a7,7,0,0,0-.92,1.43c-1,3.08-1.92,6.17-2.75,9.29a2.71,2.71,0,0,0,.44,2.12,79.45,79.45,0,0,0,5.75,6.31c2.21,2.12,4.82,3.85,6.9,6.09a12.23,12.23,0,0,0,4.23,3.21,27.12,27.12,0,0,1,6.66,4c2.22,1.87,4.34,3.68,7.24,4.46a8.89,8.89,0,0,1,3.86,2c3.67,3.64,7.57,7,11.54,10.32,2.77,2.33,4.92,5.39,7.42,8.05a22.78,22.78,0,0,0,3.84,3.45c3,2,6.14,3.83,9.25,5.67s6.1,3.64,9.28,5.21c.87.43,2.21.09,3.27-.17.37-.09.53-1,.79-1.54-.39-.17-.92-.61-1.14-.48-1.64.9-2.62-.14-3.68-1.09-1.22-1.09-2.48-2.13-3.69-3.22-1.59-1.43-3.2-2.85-4.73-4.36-3-3-5.93-6.12-9.05-9-4.12-3.78-8.52-7.25-12.58-11.1-2.73-2.59-5.08-5.57-7.55-8.42-1.86-2.14-3.64-4.36-5.5-6.51a20.16,20.16,0,0,0-1.8-1.6c-2.53-2.29-5-4.61-7.59-6.88s-5.29-4.59-7.95-6.87c-1.72-1.48-3.52-2.88-5.2-4.4C152.17,112.45,150.18,110.48,147.91,108.32ZM263.62,79.1l.52-.4c.41,1,.83,1.9,1.22,2.86a10.7,10.7,0,0,0,.89,2.29c1.8,2.48,3.58,5,6.58,6.26a3,3,0,0,1,1.33,1.13c1.36,2.23,3.64,2.81,5.92,3.35.28.07,1-.65,1.11-1.1.48-2.1-.84-3.59-2.1-4.95-3.42-3.68-7.09-7.15-10.38-10.94s-5.95-7.64-9-11.37c-1.21-1.47-3-2.48-4.13-4-2.94-3.89-5.71-7.91-8.46-11.94-1.26-1.84-2.16-3.93-3.45-5.75-2.64-3.71-5.49-7.27-8.14-11-1.42-2-2.55-4.2-3.9-6.26s-2.89-4.1-4.29-6.17-2.81-4.44-4.39-6.53a7.44,7.44,0,0,0-2.59-1.77c-1-.49-1.64-.09-1.7,1,0,.94.06,1.88.08,2.83,0,3.15,1.09,6.3.07,9.48a1.89,1.89,0,0,0,.43,1.43c2,2.57,4.1,5.11,6.17,7.65s4.38,5.16,6.43,7.85c2.58,3.38,4.76,7.1,7.58,10.26A78.89,78.89,0,0,1,248,64.28c1.26,2,3.22,3.66,4.92,5.42,2.78,2.89,5.56,5.78,8.44,8.57C261.89,78.78,262.86,78.83,263.62,79.1Zm22.56,27.29c-.22.65-.45,1-.41,1.27.2,1.37,0,2.25-1.72,1.84-.32-.08-.87.28-1.13.59-1.54,1.89-3,3.82-4.54,5.76-2.83,3.69-5.61,7.42-8.48,11.08-1.33,1.7-2.8,3.3-4.22,4.94-4.6,5.31-9.22,10.61-13.79,15.94a23.06,23.06,0,0,0-3.3,4.32,45.09,45.09,0,0,1-10.94,14,34,34,0,0,0-3.16,3.57l.36.45c2.61-.44,4.69-2.07,6.53-3.8,3.36-3.16,6.22-6.91,9.79-9.8,5.18-4.19,9-9.46,13.09-14.57,2.73-3.42,5.35-6.93,8.14-10.3s5.9-6.77,8.77-10.21c2.09-2.51,3.89-5.28,6.13-7.65a3.74,3.74,0,0,0,.75-4A17.05,17.05,0,0,0,286.18,106.39ZM112,99.19c-1.67-1.41-17-1.55-18.91-.25C98.49,101.23,104.53,101,112,99.19Z" transform="translate(-6.51 -7)"/><path d="M337.86,35.74c-.67-3,.71-5.46,2.11-7.9.6-1,.48-1.66-.85-1.77-1.58-.13-3.16-.35-4.74-.46-2-.15-2.62-.7-2.53-2.78.11-2.77.37-5.53.51-8.3.05-1.05-.08-2.11-.1-3.17,0-1.65,1.29-2.64,2.31-1.54,3,3.26,6.84,1.56,10.27,2.12,1,.16,2,.31,2.93.45a6.21,6.21,0,0,0,1.22.09c4.63-.27,9.25-.61,13.88-.78,1.2,0,2.4.55,3.62.67a10.2,10.2,0,0,0,4,0c1.39-.45,1.91.55,2.75,1a2.23,2.23,0,0,1-.55,1.43,17.42,17.42,0,0,1-4.29,1.94,26.42,26.42,0,0,0-9,4.55,13.28,13.28,0,0,0-5.76,7.93c-.86,4,1.29,6.76,4.28,9a9.71,9.71,0,0,0,10.78,1c1.29-.64,2,0,2.07,1,.27,3.36.37,6.74.41,10.12,0,.76.9,2-.69,2.25a18.89,18.89,0,0,1-2.62-.15c-3.3,0-6.66-.38-9.89.11-6,.91-11-1.17-15.64-4.44a9.24,9.24,0,0,1-2.87-4.32,79.57,79.57,0,0,1-2.05-7.93Zm26.48,7.42A8.81,8.81,0,0,1,358,40.93c-1-.87-2.19-1.58-3.24-2.43a10.25,10.25,0,0,1-4.21-7.2c-.53-5,2-8.5,5.26-11.49,1.94-1.76,4.57-2.75,6.88-4.12a5.66,5.66,0,0,0,.93-.88c-.42-.23-.85-.66-1.27-.65-2.06,0-4.13.1-6.19.23-2.29.15-4.6.25-6.87.59-3,.45-5.88.76-8.85-.11a10,10,0,0,0-3.69,0c-.32,0-.77.68-.81,1.09-.15,1.33-.16,2.68-.18,4-.05,2.66.59,3.29,3.27,2.93,1.38-.19,2.71-.8,4.09-1a4.8,4.8,0,0,1,3.07.28c1.26.9.38,2.2-.31,3.1a25.47,25.47,0,0,0-4.26,8.22c-1.14,3.71.19,10.86,3.28,12.87a21.49,21.49,0,0,0,7.56,3c2.22.42,4.64-.31,7-.44a23.83,23.83,0,0,1,5.1,0c2.2.37,3,0,3.33-2.3C368.36,43.41,368.18,43.19,364.34,43.16Z" transform="translate(-6.51 -7)"/><path d="M149.5,170.1c.22,4-1,7.77-2.34,11.47-1.24,3.39-2.21,6.9-3.77,10.14a13.37,13.37,0,0,0-1.32,6.58c0,.82-.94,1.65-1.33,2.53-.74,1.68-1.24,3.49-2.13,5.08a4.74,4.74,0,0,1-2.48,2.23,74.92,74.92,0,0,1-9.64,1.8c-2,.23-2.93-1.72-2-3.59.64-1.3,1.25-2.62,1.8-4,1.19-2.9,2.41-5.8,3.49-8.75s2-6,3.07-9.07c.84-2.49,1.8-4.94,2.51-7.47.54-1.93.26-2.23-1.71-2.12-2.63.15-5.26.38-7.87.74-.6.08-1.11.83-1.64,1.3s-1.27,1.39-1.42,1.3c-.71-.44-1.69-1.11-1.77-1.79a31.34,31.34,0,0,1,.06-5.47c.08-1.34-.09-3,.62-3.91.59-.77,2.33-.58,3.49-1a21.06,21.06,0,0,1,9.22-1.15c2.86.22,5.69.72,8.55,1a35.08,35.08,0,0,0,4.6,0c1.58-.07,2.32.51,2.07,2.18A12.8,12.8,0,0,0,149.5,170.1Zm-21.34,35.61c2.91.51,5,.31,7.12-1.26.81-.61.93-2.15,1.37-3.26.09-.22.15-.45.23-.67,1.29-3.36,2.58-6.72,3.86-10.08,1.2-3.17,2.53-6.3,3.52-9.54s1.67-6.67,2.45-10c.29-1.24-.39-1.69-1.56-1.76-3.23-.19-6.49-.22-9.67-.71a23.36,23.36,0,0,0-9.1.55,3.06,3.06,0,0,0-1.87,1.55,2.09,2.09,0,0,0,.85,1.89,5.28,5.28,0,0,0,2.55.11c1-.07,2-.37,2.93-.41,2.06-.08,4.13-.05,6.19-.09,2.32,0,3,1.08,2.13,3.25a24.84,24.84,0,0,0-1,3c-.27,1-.35,2-.69,2.9-1,2.84-2.13,5.66-3.19,8.49s-2.08,5.7-3.16,8.53C130.19,200.63,129.2,203.08,128.16,205.71Z" transform="translate(-6.51 -7)"/><path d="M355.23,162c0,3.77-.11,7.54.05,11.3a13.6,13.6,0,0,0,1.12,4.91c1.64,3.62,1.42,7.44,1.61,11.22,0,.58-.12,1.18-.11,1.76.07,4.13-1.39,5.55-5.62,5.64-2,0-4,.28-6,.43-1.63.12-2.32-.46-2.26-2.1.09-2.19.4-4.37.41-6.56,0-1.8-.39-3.59-.45-5.39-.19-6.31-.31-12.61-.44-18.92,0-1-.51-1.23-1.36-1-2.68.74-5.34,1.57-8.05,2.2a3.69,3.69,0,0,1-2.6-.4c-.3-.2-.12-1.65.26-2.3q3.19-5.48,6.61-10.82a55.68,55.68,0,0,1,3.57-4.66c.74-.93,1.52-1.06,2.21.12s1.37,1.2,2.62.62a22.56,22.56,0,0,1,5.21-1.54,5.53,5.53,0,0,1,2.73.29c.8.27,1.07.87.87,2a37.42,37.42,0,0,0-.37,6c-.05,2.41,0,4.83,0,7.24ZM335,161.61c3,.52,5-.93,7-2,2.48-1.29,3.91-.72,4,2,.18,7.18.23,14.37.51,21.55.13,3.39.67,6.76,1,10.15,2-.13,3.69-.25,5.38-.34,1.94-.1,2.13-.51,2.4-2.48.68-5.16-1.89-9.74-2.38-14.67-.37-3.78-.62-7.59-.67-11.39-.06-4.35.15-8.71.24-13.06,0-1-.48-1.45-1.44-1.22-1.25.3-2.48.68-3.71,1.06s-3,1.57-3.93,1.14c-1.93-.88-2.51.1-3.3,1.3Z" transform="translate(-6.51 -7)"/><path d="M380.85,142.11c-.7,2-1.23,3.64-1.8,5.24-.77,2.19-1.59,4.36-2.34,6.55-.34,1-.47,2.05-.9,3-1.95,4.27-4.51,8-9,10.09-1.87.87-3.45.44-3.4-1.05a2.06,2.06,0,0,1,.95-1.58c4.89-1.85,7.44-5.65,9-10.38,1.21-3.7,2.62-7.35,3.71-11.08a27.27,27.27,0,0,0,.52-5.25c.11-1.31-.63-1.59-1.66-1.18a6.54,6.54,0,0,1-4.23.17c-1.25-.31-1.9-1-1.54-2.07a56.87,56.87,0,0,1,2.36-5.6c.61-1.35,1.34-2.66,2-4a42.17,42.17,0,0,1,2.05-4.36c.85-1.35,2.17-1.4,3.24-.19.86,1,1.4,2.24,2.25,3.23a18.45,18.45,0,0,0,3.05,2.88,9.9,9.9,0,0,1,3.22,4.27c.55,1.27-.35,2.59-1.94,2.93-1.36.29-2.73.58-4.07.94a2.33,2.33,0,0,0-1.17.72C380.35,136.36,380.36,141.34,380.85,142.11Zm-2.54-12.25-.52-.46L375.68,132C377.94,132.26,378.08,131,378.31,129.86Z" transform="translate(-6.51 -7)"/><path d="M392,49.76c-.38,2-.77,4-1.1,6-.05.32.14,1,.32,1a3.15,3.15,0,0,0,1.8,0c1.68-.75,3.24-1.78,5-2.43a2.72,2.72,0,0,1,2.35.44,2.28,2.28,0,0,1-.34,2.15c-2.56,1.42-2.65,4.28-4,6.38-1.47,2.29-2.81,4.66-4.35,6.9a2.13,2.13,0,0,1-3.15.5,72.26,72.26,0,0,1-6.35-5.18c-2.14-2-2-2.89.56-4.37a36.2,36.2,0,0,0,3.92-2.28,3.56,3.56,0,0,0,1.18-2.26c.28-3,.46-6,.51-9,0-2.15-.41-4.31-.26-6.44a8.42,8.42,0,0,0-.21-4c-1.32-3.33-4.9-6.6-8.78-5-.36.14-1.14-.78-1.72-1.2.41-.44.78-1.23,1.22-1.27,4.58-.45,8.08,1,10.7,5.14,1.56,2.44,1.4,5,2,7.53s.34,4.92.46,7.38Zm-3.71,14c-.66-.52-1.09-1.08-1.33-1a5.62,5.62,0,0,0-1.44,1c.42.42.78,1.06,1.27,1.19C387.14,65,387.64,64.31,388.32,63.74Z" transform="translate(-6.51 -7)"/><path d="M181,168.53c-.2.7-.43,1.74-.79,2.73-1.08,2.95-2.59,5.74-2.64,9,0,.78-1.12,1.68-1.93,2.22-.2.13-1.23-.91-1.82-1.47s-.81-1.26-1.38-1.52a2,2,0,0,0-1.83.21c-1.39,1.72-2.54,3.63-3.91,5.37-2.73,3.47-5.69,6.66-10.18,7.87-1.07.29-2.15,1-3.18.87-.84-.07-1.62-1-2.42-1.54.68-.6,1.29-1.58,2.06-1.72a14.7,14.7,0,0,0,9.73-6.25c1.33-1.87,2.87-3.61,4.22-5.47a2,2,0,0,0,0-1.47,24,24,0,0,1-1.39-4.44,3.44,3.44,0,0,1,1.52-2.44c2.76-1.89,5.65-3.6,8.51-5.35a10.66,10.66,0,0,1,2.77-1.46,2,2,0,0,1,1.82.82A22.73,22.73,0,0,1,181,168.53Zm-4.22,2.38-.4-.46-2.8,1,2.23,2Z" transform="translate(-6.51 -7)"/><path d="M7.75,179.77a8.1,8.1,0,0,1,1.13,1.95c0,.17-.9.85-1.24.75a2,2,0,0,1-1.12-1.22C6.44,181,7.11,180.51,7.75,179.77Z" transform="translate(-6.51 -7)"/><path d="M234,104.08a6.35,6.35,0,0,0,1.71.63,3.65,3.65,0,0,1,3.5,2.51c.22.6.47,1.76.28,1.86a3.32,3.32,0,0,1-2.23.4c-3.2-.91-6.35-2-9.52-3-1.61-.51-3.23-1-4.87-1.41-1.13-.27-2.27-.37-2.33-1.9s.06-2.84,1.7-3.7c3.24-1.7,6.4-3.53,9.56-5.39,1.34-.79,2.5-1.93,3.89-2.61a3.64,3.64,0,0,1,2.77-.15,2.71,2.71,0,0,1,1.07,2.19c0,1.1-.92,1.58-2.08,2a45.82,45.82,0,0,0-5.84,3l.22.63c1.49,0,3-.06,4.46,0,5.33.25,10.53-.9,15.76-1.61a34.71,34.71,0,0,0,5.07-1.42A2.16,2.16,0,0,1,260,97.46c.31,1.48-.55,2-1.81,2.25-4.29.89-8.54,1.92-12.85,2.67-2.94.51-5.95.64-8.92,1-.79.08-1.57.23-2.36.35Z" transform="translate(-6.51 -7)"/><path d="M184.57,98.3a2.71,2.71,0,0,0-.32-1.14c-1.16-1.56-1.42-3.66-.48-4.6s3.43-.82,4.82.31a26.61,26.61,0,0,1,7.34,8.47,2.94,2.94,0,0,1-.41,2.68c-2.26,2.34-4.71,4.51-7.15,6.68a19.19,19.19,0,0,1-3.87,2.87,2.93,2.93,0,0,1-2.64-.32c-.78-.68.14-2.94,1.08-3.67,2.34-1.82,4.62-3.72,6.92-5.6.12-.1.16-.28.33-.57-1.68,0-3.25.09-4.8,0-2.16-.15-4.32-.7-6.46-.6a63.28,63.28,0,0,0-8,1.12c-1.26.22-2.46.75-3.71,1-.83.16-1.91.76-2.39-.62a2.44,2.44,0,0,1,1.47-3.17,50.18,50.18,0,0,1,4.95-1.24c2.57-.55,5.14-1.16,7.74-1.5A44.62,44.62,0,0,1,184.57,98.3Z" transform="translate(-6.51 -7)"/></svg>